<svg xmlns="http://www.w3.org/2000/svg" width="851" height="677" viewBox="0 0 851 677" font-family="Georgia,serif">
<rect width="851" height="677" fill="#fbfaf7"/>
<clipPath id="d1"><circle cx="308.00" cy="303.30" r="235.00"/></clipPath>
<circle cx="543.00" cy="303.30" r="235.00" fill="#ecebe4" clip-path="url(#d1)"/>
<circle cx="308.00" cy="303.30" r="235.00" fill="none" stroke="#c3bdb0" stroke-width="1.6" stroke-dasharray="7 5"/>
<circle cx="543.00" cy="303.30" r="235.00" fill="none" stroke="#c3bdb0" stroke-width="1.6" stroke-dasharray="7 5"/>
<line x1="825.00" y1="70.65" x2="26.00" y2="70.65" stroke="#8fa9c9" stroke-width="1.5" opacity="0.85"/>
<line x1="825.00" y1="174.05" x2="26.00" y2="174.05" stroke="#8fa9c9" stroke-width="1.5" opacity="0.85"/>
<line x1="825.00" y1="496.00" x2="26.00" y2="496.00" stroke="#8fa9c9" stroke-width="1.5" opacity="0.85"/>
<line x1="310.35" y1="580.60" x2="310.35" y2="26.00" stroke="#8fa9c9" stroke-width="1.5" opacity="0.85"/>
<line x1="528.90" y1="580.60" x2="528.90" y2="26.00" stroke="#8fa9c9" stroke-width="1.5" opacity="0.85"/>
<line x1="650.64" y1="580.60" x2="310.62" y2="26.00" stroke="#8fa9c9" stroke-width="1.5" opacity="0.85"/>
<line x1="806.58" y1="26.00" x2="245.07" y2="580.60" stroke="#8fa9c9" stroke-width="1.5" opacity="0.85"/>
<line x1="642.42" y1="580.60" x2="26.00" y2="304.73" stroke="#8fa9c9" stroke-width="1.5" opacity="0.85"/>
<path d="M 308.00 68.30 A 235.00 235.00 0 0 0 308.00 538.30" fill="none" stroke="#c2543a" stroke-width="5.5" stroke-linecap="round"/>
<circle cx="341.15" cy="70.65" r="3.6" fill="#c2543a"/>
<circle cx="504.26" cy="174.05" r="3.6" fill="#c2543a"/>
<circle cx="442.51" cy="496.00" r="3.6" fill="#c2543a"/>
<circle cx="310.35" cy="68.31" r="3.6" fill="#c2543a"/>
<circle cx="310.35" cy="538.29" r="3.6" fill="#c2543a"/>
<circle cx="528.90" cy="223.12" r="3.6" fill="#c2543a"/>
<circle cx="528.90" cy="383.48" r="3.6" fill="#c2543a"/>
<circle cx="337.71" cy="70.19" r="3.6" fill="#c2543a"/>
<circle cx="529.23" cy="382.57" r="3.6" fill="#c2543a"/>
<circle cx="542.43" cy="286.90" r="3.6" fill="#c2543a"/>
<circle cx="446.69" cy="493.01" r="3.6" fill="#c2543a"/>
<circle cx="308.00" cy="303.30" r="3.2" fill="#22201d"/>
<text x="308.00" y="323.30" fill="#22201d" font-size="15" text-anchor="middle" font-style="italic">C₁</text>
<circle cx="543.00" cy="303.30" r="3.2" fill="#22201d"/>
<text x="543.00" y="323.30" fill="#22201d" font-size="15" text-anchor="middle" font-style="italic">C₂</text>
<line x1="308.00" y1="303.30" x2="543.00" y2="303.30" stroke="#22201d" stroke-width="1.3"/>
<text x="425.50" y="294.30" fill="#22201d" font-size="14" text-anchor="middle">100</text>
<text x="308.00" y="56.30" fill="#c2543a" font-size="13" text-anchor="middle">(−50, 100)</text>
<text x="308.00" y="560.30" fill="#c2543a" font-size="13" text-anchor="middle">(−50, −100)</text>
<text x="26" y="607" fill="#22201d" font-size="17">Shortest barrier known: the half of the left circle with x ≥ −50.</text>
<text x="26" y="633" fill="#8a8478" font-size="15">Length 100π = 314.159… Every line meeting both circles crosses it. The Crofton bound 100(π−1) = 214.159… is a strict lower bound.</text>
<line x1="26" y1="651" x2="78" y2="651" stroke="#c2543a" stroke-width="5.5" stroke-linecap="round"/>
<text x="88" y="656" fill="#8a8478" font-size="14">barrier</text>
<line x1="166" y1="651" x2="218" y2="651" stroke="#8fa9c9" stroke-width="1.5"/>
<text x="228" y="656" fill="#8a8478" font-size="14">sample lines meeting both circles</text>
</svg>